<mxfile host="app.diagrams.net" modified="2023-12-05T08:04:34.983Z" agent="Mozilla/5.0 (Macintosh; Intel Mac OS X 10_15_7) AppleWebKit/537.36 (KHTML, like Gecko) Chrome/119.0.0.0 Safari/537.36" version="22.1.5" etag="hHLcApDsYXmluTPExSub" type="github">
  <diagram name="Pagina-1" id="jLA6cOj2_GYZPF3NF02b">
    <mxGraphModel>
      <root>
        <mxCell id="0" />
        <mxCell id="1" parent="0" />
      </root>
    </mxGraphModel>
  </diagram>
</mxfile>
